{"title":"Cyberwar S01E01 Who is Anonymous 720p WEB-DL AAC2 0 H 264-Coo7","uid":15289745,"size":678571011,"categoryP":"video","categoryS":"hd___tv_shows","magnet":"?xt=urn:btih:674a4acd782f90a4edd24c2e90998d0ae1cbf86d&amp;dn=Cyberwar+S01E01+Who+is+Anonymous+720p+WEB-DL+AAC2+0+H+264-Coo7&amp;tr=udp%3A%2F%2Ftracker.leechers-paradise.org%3A6969&amp;tr=udp%3A%2F%2Fzer0day.ch%3A1337&amp;tr=udp%3A%2F%2Fopen.demonii.com%3A1337&amp;tr=udp%3A%2F%2Ftracker.coppersurfer.tk%3A6969&amp;tr=udp%3A%2F%2Fexodus.desync.com%3A6969","seeders":3,"leechers":0,"uploader":"Anon_up","files":1,"time":1468409771,"description":"Screenshot\r\n[img]https://glodls.to/uploads/images/16266690.jpg[/img]\r\n\r\nUSE TORRENT\r\nSEED FOR LONG\r\n\r\n[quote]The notorious hacktivist collective Anonymous has targeted everyone from PayPal to the FBI. But a string of arrests have crippled the group. So who is Anonymous now?[/quote]\r\n\r\n[spoiler=&quot;MediaInfo&quot;]\r\nGeneral\r\nUnique ID : 179571360092994635956061312219397908752 (0x87182F9ACBAF9C93B0C0C54E53EA6910)\r\nComplete name : Cyberwar.S01E01.Who.is.Anonymous.720p.WEB-DL.AAC2.0.H.264-Coo7.mkv\r\nFormat : Matroska\r\nFormat version : Version 4 / Version 2\r\nFile size : 647 MiB\r\nDuration : 22 min\r\nOverall bit rate : 4 019 kb/s\r\nEncoded date : UTC 2016-07-06 17:12:18\r\nWriting application : mkvmerge v8.8.0 ('Wind at my back') 64bit\r\nWriting library : libebml v1.3.3 + libmatroska v1.4.4\r\n\r\nVideo\r\nID : 2\r\nFormat : AVC\r\nFormat/Info : Advanced Video Codec\r\nFormat profile :   \r\nFormat settings, CABAC : No\r\nFormat settings, ReFrames : 2 frames\r\nCodec ID : V_MPEG4/ISO/AVC\r\nDuration : 22 min\r\nBit rate : 3 866 kb/s\r\nWidth : 1 280 pixels\r\nHeight : 716 pixels\r\nDisplay aspect ratio : 16:9\r\nFrame rate mode : Constant\r\nFrame rate : 23.976 (24000/1001) FPS\r\nColor space : YUV\r\nChroma subsampling : 4:2:0\r\nBit depth : 8 bits\r\nScan type : Progressive\r\nBits/(Pixel*Frame) : 0.176\r\nStream size : 622 MiB (96%)\r\nLanguage : English\r\nDefault : Yes\r\nForced : No\r\nColor range : Limited\r\nColor primaries : BT.709\r\nTransfer characteristics : BT.709\r\nMatrix coefficients : BT.709\r\n\r\nAudio\r\nID : 1\r\nFormat : AAC\r\nFormat/Info : Advanced Audio Codec\r\nFormat profile : LC\r\nCodec ID : A_AAC\r\nDuration : 22 min\r\nBit rate : 151 kb/s\r\nChannel(s) : 2 channels\r\nChannel positions : Front: L R\r\nSampling rate : 48.0 kHz\r\nFrame rate : 46.875 FPS (1024 spf)\r\nCompression mode : Lossy\r\nStream size : 24.2 MiB (4%)\r\nLanguage : English\r\nDefault : Yes\r\nForced : No\r\n\r\nText\r\nID : 3\r\nFormat : UTF-8\r\nCodec ID : S_TEXT/UTF8\r\nCodec ID/Info : UTF-8 Plain Text\r\nDuration : 22 min\r\nBit rate : 121 b/s\r\nCount of elements : 387\r\nStream size : 20.0 KiB (0%)\r\nLanguage : English\r\nDefault : Yes\r\nForced : No\r\n\r\n\r\n[/spoiler]","torrent":{"xt":"urn:btih:674a4acd782f90a4edd24c2e90998d0ae1cbf86d","amp;dn":"Cyberwar+S01E01+Who+is+Anonymous+720p+WEB-DL+AAC2+0+H+264-Coo7","amp;tr":["udp%3A%2F%2Ftracker.leechers-paradise.org%3A6969","udp%3A%2F%2Fzer0day.ch%3A1337","udp%3A%2F%2Fopen.demonii.com%3A1337","udp%3A%2F%2Ftracker.coppersurfer.tk%3A6969","udp%3A%2F%2Fexodus.desync.com%3A6969"],"infoHash":"674a4acd782f90a4edd24c2e90998d0ae1cbf86d","infoHashBuffer":{"type":"Buffer","data":[103,74,74,205,120,47,144,164,237,210,76,46,144,153,141,10,225,203,248,109]},"announce":[],"urlList":[]}}